<svg width="8" height="12" viewBox="0 0 8 12" fill="none" xmlns="http://www.w3.org/2000/svg">
<path d="M1.46282 0.430375C1.14822 0.174767 0.685984 0.222585 0.430375 0.53718C0.174767 0.851775 0.222585 1.31402 0.53718 1.56962L1.46282 0.430375ZM0.53718 9.93784C0.222585 10.1934 0.174767 10.6557 0.430375 10.9703C0.685984 11.2849 1.14822 11.3327 1.46282 11.0771L0.53718 9.93784ZM6.85075 5.75373L7.31357 6.32336C7.4851 6.18399 7.58469 5.97474 7.58469 5.75373C7.58469 5.53272 7.4851 5.32347 7.31357 5.18411L6.85075 5.75373ZM0.53718 1.56962L6.38793 6.32336L7.31357 5.18411L1.46282 0.430375L0.53718 1.56962ZM6.38793 5.18411L0.53718 9.93784L1.46282 11.0771L7.31357 6.32336L6.38793 5.18411Z" fill="white"/>
</svg>
