<svg width="74" height="74" viewBox="0 0 74 74" fill="none" xmlns="http://www.w3.org/2000/svg">
<circle cx="37" cy="37" r="37" fill="white"/>
<path d="M17.4131 37.9973C17.6627 39.4447 18.7108 44.4356 19.8088 48.5782C20.807 52.2216 21.905 55.2162 21.905 55.2162C21.905 55.2162 23.003 57.9612 23.2526 58.7598C23.5021 59.5583 23.9014 60.9558 23.5021 61.1055C23.1028 61.2553 22.3542 60.6064 21.905 59.9077C21.4558 59.209 20.4576 56.9131 18.6609 52.9702C16.8641 49.0274 13.3205 37.2486 12.6717 35.0526C12.0228 32.8566 10.8749 26.1686 10.7751 23.9726C10.6753 21.7766 10.276 17.6341 12.9711 14.4398C12.9711 14.4398 14.6681 12.144 17.5129 11.7447C19.8587 11.3953 22.8533 12.4434 24.8996 13.7411C28.1936 15.7874 30.6891 16.1368 31.288 16.0869C32.2862 15.987 32.985 15.438 33.2844 15.6876C33.5839 15.9371 32.1864 17.4344 30.0403 18.0832C27.8942 18.7321 25.2989 17.0351 22.7035 16.8355C22.4041 16.8355 20.1581 16.6359 18.5111 17.9335C16.2153 19.6804 16.0655 24.871 16.0655 24.871C15.5165 28.3148 16.914 35.0027 17.4131 37.9973Z" fill="#7E9893"/>
<path d="M41.9675 29.3623C42.6164 27.7152 43.3151 25.0201 43.3151 25.0201C43.3151 25.0201 45.0619 19.7796 42.7661 18.0826C41.0692 16.785 37.0265 19.1307 35.3794 19.9293C33.2832 20.9275 31.9357 21.5763 29.7396 21.7261C24.0499 22.0255 23.3013 20.1289 23.5508 19.8794C23.8003 19.6298 24.549 20.1788 25.5472 20.2787C26.1461 20.3785 29.7396 20.5282 33.0337 18.4819C35.08 17.1343 41.8677 13.1915 44.1636 13.441C46.0601 13.6407 46.6591 14.7387 46.6591 14.7387C48.7553 17.0844 47.258 22.8241 46.0102 25.619C45.012 27.865 42.8659 32.1572 41.3187 33.8042C41.1191 34.0039 40.7198 33.9041 40.7198 33.6046C40.7198 33.5547 40.5201 33.0556 41.9675 29.3623Z" fill="#7E9893"/>
<path d="M14.9902 38.5615V58.7651H22.4671H29.785" stroke="#7E9893" stroke-width="1.54517" stroke-linecap="round" stroke-linejoin="round"/>
<path d="M46.3406 17.085H59.3698V58.7647H40.6016" stroke="#7E9893" stroke-width="1.54517" stroke-linecap="round" stroke-linejoin="round"/>
<path d="M31.677 46.7086C32.4339 46.5136 33.1044 46.2374 33.6884 45.8799C34.2831 45.5224 34.786 45.1 35.1969 44.6125C35.6079 44.1251 35.9215 43.5943 36.1377 43.0202C36.354 42.4352 36.4622 41.834 36.4622 41.2166C36.4622 40.2741 36.3054 39.4292 35.9918 38.6818C35.689 37.9344 35.2131 37.3061 34.5643 36.797C33.9263 36.277 33.1152 35.887 32.1311 35.6271C31.1471 35.3563 29.9846 35.2208 28.6436 35.2208L26.6016 35.2207V52.4442M31.677 46.7086C33.5262 46.9902 34.9428 47.6077 35.9269 48.5609C36.9218 49.5142 37.4192 50.7707 37.4192 52.3306C37.4192 53.3271 37.2408 54.2262 36.8839 55.0278C36.5379 55.8186 36.0242 56.4956 35.3429 57.0589C34.6724 57.6113 33.8452 58.0338 32.8611 58.3263C31.877 58.6188 30.7578 58.765 29.5033 58.765M31.677 46.7086H29.5033" stroke="#7E9893" stroke-width="1.54517" stroke-linecap="round" stroke-linejoin="round"/>
<path d="M42.7371 58.7646C43.6212 58.7646 44.4089 58.5901 45.1004 58.2411C45.7831 57.892 46.3564 57.4247 46.8203 56.8392C47.2842 56.2537 47.6387 55.5837 47.8838 54.8293C48.1201 54.0749 48.2383 53.2867 48.2383 52.4648C48.2383 51.4064 48.1026 50.5281 47.8313 49.83C47.5599 49.1319 47.2011 48.552 46.7547 48.0903C46.2995 47.6287 45.7875 47.2458 45.2185 46.9418C44.6496 46.6378 44.0675 46.3619 43.4724 46.1142C42.8684 45.8778 42.282 45.6301 41.713 45.3711C41.1441 45.1234 40.6364 44.8137 40.19 44.4422C39.7436 44.0706 39.3848 43.6033 39.1134 43.0403C38.8333 42.4886 38.6933 41.7792 38.6933 40.9122C38.6933 40.1127 38.8027 39.364 39.0215 38.6659C39.2316 37.9678 39.5423 37.3654 39.9537 36.8587C40.3651 36.352 40.8684 35.9522 41.4636 35.6595C42.05 35.3667 42.7196 35.2204 43.4724 35.2204C44.3938 35.2204 46.5555 35.6128 47.8313 37.1824" stroke="#7E9893" stroke-width="1.54517" stroke-linecap="round" stroke-linejoin="round"/>
</svg>
