<svg width="73" height="72" viewBox="0 0 73 72" fill="none" xmlns="http://www.w3.org/2000/svg">
<path d="M48.4657 36.0005C48.4657 42.3629 43.3121 47.5205 36.9546 47.5205C30.597 47.5205 25.4434 42.3629 25.4434 36.0005C25.4434 29.638 30.597 24.4805 36.9546 24.4805C43.3121 24.4805 48.4657 29.638 48.4657 36.0005Z" fill="#8AA19C"/>
<path d="M42.7104 36.0002C42.7104 39.1815 40.1336 41.7602 36.9548 41.7602C33.776 41.7602 31.1992 39.1815 31.1992 36.0002C31.1992 32.819 33.776 30.2402 36.9548 30.2402C40.1336 30.2402 42.7104 32.819 42.7104 36.0002Z" fill="white"/>
<path d="M36.9549 0C17.0909 0 0.982422 16.1208 0.982422 36C0.982422 55.8792 17.0909 72 36.9549 72C56.8189 72 72.9274 55.8792 72.9274 36C72.9274 16.1208 56.8189 0 36.9549 0ZM57.4864 44.5226C57.3865 46.7232 57.0368 48.2256 56.5264 49.5407C55.4533 52.3174 53.2599 54.5125 50.4852 55.5864C49.1717 56.0973 47.6699 56.4467 45.4716 56.5472C43.2689 56.6477 42.5652 56.6719 36.9555 56.6719C31.3452 56.6719 30.642 56.6477 28.4388 56.5472C26.2404 56.4467 24.7387 56.0973 23.4252 55.5864C22.0463 55.0673 20.7981 54.2538 19.7662 53.2018C18.7156 52.1697 17.9027 50.92 17.384 49.5407C16.8735 48.2261 16.5239 46.7232 16.424 44.5232C16.3224 42.3182 16.2988 41.614 16.2988 36C16.2988 30.386 16.3224 29.6818 16.4234 27.4774C16.5233 25.2768 16.8724 23.7744 17.3829 22.4594C17.9016 21.08 18.7151 19.8303 19.7662 18.7982C20.7976 17.7462 22.0463 16.9327 23.4246 16.4136C24.7387 15.9027 26.2399 15.5533 28.4388 15.4528C30.6415 15.3523 31.3452 15.3281 36.9549 15.3281C42.5646 15.3281 43.2683 15.3523 45.471 15.4534C47.6699 15.5533 49.1711 15.9027 50.4852 16.413C51.8635 16.9321 53.1122 17.7462 54.1441 18.7982C55.1947 19.8309 56.0082 21.08 56.5264 22.4594C57.0374 23.7744 57.3865 25.2768 57.4869 27.4774C57.5874 29.6818 57.611 30.386 57.611 36C57.611 41.614 57.5874 42.3182 57.4864 44.5226Z" fill="#7E9893"/>
<ellipse cx="47.7462" cy="25.1991" rx="2.15835" ry="2.16" fill="#8AA19C"/>
</svg>
