<svg width="12" height="19" viewBox="0 0 12 19" fill="none" xmlns="http://www.w3.org/2000/svg">
<path d="M10.0856 0.825732C10.3943 0.564486 10.8564 0.602991 11.1176 0.911737C11.3789 1.22048 11.3404 1.68255 11.0316 1.9438L10.0856 0.825732ZM11.0316 16.9365C11.3404 17.1978 11.3789 17.6598 11.1176 17.9686C10.8564 18.2773 10.3943 18.3158 10.0856 18.0546L11.0316 16.9365ZM1.03859 9.44015L0.565564 9.99919C0.401124 9.86004 0.306285 9.65556 0.306285 9.44015C0.306285 9.22474 0.401124 9.02026 0.565564 8.88112L1.03859 9.44015ZM11.0316 1.9438L1.51162 9.99919L0.565564 8.88112L10.0856 0.825732L11.0316 1.9438ZM1.51162 8.88112L11.0316 16.9365L10.0856 18.0546L0.565564 9.99919L1.51162 8.88112Z" fill="white"/>
</svg>
