<svg width="67" height="67" viewBox="0 0 67 67" fill="none" xmlns="http://www.w3.org/2000/svg">
<path d="M31.6306 26.2239C31.202 25.8756 30.5722 25.9408 30.2239 26.3694C29.8756 26.798 29.9408 27.4278 30.3694 27.7761L31.6306 26.2239ZM30.3694 39.2239C29.9408 39.5722 29.8756 40.202 30.2239 40.6306C30.5722 41.0592 31.202 41.1244 31.6306 40.7761L30.3694 39.2239ZM39 33.5L39.6306 34.2761C39.8643 34.0862 40 33.8011 40 33.5C40 33.1989 39.8643 32.9138 39.6306 32.7239L39 33.5ZM30.3694 27.7761L38.3694 34.2761L39.6306 32.7239L31.6306 26.2239L30.3694 27.7761ZM38.3694 32.7239L30.3694 39.2239L31.6306 40.7761L39.6306 34.2761L38.3694 32.7239Z" fill="white"/>
<circle cx="33.5" cy="33.5" r="32.5" stroke="white" stroke-width="2"/>
</svg>
